<svg xmlns="http://www.w3.org/2000/svg" width="29.094" height="29.094" viewBox="0 0 29.094 29.094"><path d="M25.894,12.074a12.344,12.344,0,0,0-1.6-3.782l1.455-3.055L23.712,3.2,20.657,4.655A11.222,11.222,0,0,0,17.02,3.2L16,0H13.092L11.929,3.2A11.574,11.574,0,0,0,8.292,4.8L5.237,3.346,3.2,5.237,4.655,8.292A11.222,11.222,0,0,0,3.2,11.929L0,13.092V16l3.2,1.164A13.581,13.581,0,0,0,4.655,20.8L3.2,23.857l2.037,2.037,3.055-1.455a11.574,11.574,0,0,0,3.637,1.6l1.164,3.055H16l1.164-3.2c.436-.145,1.018-.291,1.455-.436L16.293,23.13A8.742,8.742,0,1,1,14.547,5.819a8.6,8.6,0,0,1,8.583,9.892L25.6,18.184a3.424,3.424,0,0,0,.291-1.164L29.094,16V13.092Z" fill="#656565"/><g transform="translate(8.778 8.509)"><path d="M174.2,166.548l-8.583-8.583a5.826,5.826,0,0,0-6.837-8l2.618,2.618a2.88,2.88,0,1,1-4.073,4.073l-2.618-2.473a5.749,5.749,0,0,0,7.71,6.837L171,169.6a2.109,2.109,0,0,0,3.055,0A2.243,2.243,0,0,0,174.2,166.548Z" transform="translate(-154.47 -149.745)" fill="#656565"/></g></svg>