<svg xmlns="http://www.w3.org/2000/svg" width="27.916" height="23.068" viewBox="0 0 27.916 23.068"><g transform="translate(0 0)"><path d="M166.072,37.658h-5.339a.989.989,0,0,0-.989.989V59.73a.989.989,0,0,0,.989.989h5.339a.989.989,0,0,0,.989-.989V38.647A.989.989,0,0,0,166.072,37.658Z" transform="translate(-149.461 -37.658)" fill="#656565"/><path d="M326.328,228.634h-5.339a.989.989,0,0,0-.989.989v8.8a.989.989,0,0,0,.989.989h5.339a.989.989,0,0,0,.989-.989v-8.8A.989.989,0,0,0,326.328,228.634Z" transform="translate(-299.401 -216.341)" fill="#656565"/><path d="M6.328,160.026H.989a.989.989,0,0,0-.989.989v13.2a.989.989,0,0,0,.989.989H6.328a.989.989,0,0,0,.989-.989v-13.2A.989.989,0,0,0,6.328,160.026Z" transform="translate(0 -152.149)" fill="#656565"/></g></svg>