<svg xmlns="http://www.w3.org/2000/svg" width="21.437" height="25.695" viewBox="0 0 21.437 25.695"><path d="M93.22,12.377A5.988,5.988,0,0,0,97.6,10.564a5.988,5.988,0,0,0,1.813-4.376A5.989,5.989,0,0,0,97.6,1.813a6.187,6.187,0,0,0-8.751,0,5.988,5.988,0,0,0-1.813,4.375,5.988,5.988,0,0,0,1.813,4.376A5.989,5.989,0,0,0,93.22,12.377Zm0,0" transform="translate(-82.664 0)" fill="#656565"/><path d="M21.385,254.663a15.286,15.286,0,0,0-.208-1.624,12.791,12.791,0,0,0-.4-1.632,8.063,8.063,0,0,0-.671-1.522,5.745,5.745,0,0,0-1.012-1.319,4.462,4.462,0,0,0-1.454-.913,5.023,5.023,0,0,0-1.856-.336,1.884,1.884,0,0,0-1.006.427c-.3.2-.654.424-1.048.676a6,6,0,0,1-1.356.6,5.265,5.265,0,0,1-3.316,0,5.99,5.99,0,0,1-1.355-.6c-.39-.249-.743-.477-1.049-.676a1.881,1.881,0,0,0-1.005-.427,5.017,5.017,0,0,0-1.855.336,4.457,4.457,0,0,0-1.454.913,5.745,5.745,0,0,0-1.012,1.318,8.079,8.079,0,0,0-.671,1.523,12.822,12.822,0,0,0-.4,1.632,15.231,15.231,0,0,0-.208,1.624c-.034.492-.051,1-.051,1.517a4.267,4.267,0,0,0,1.267,3.228A4.562,4.562,0,0,0,4.532,260.6H16.9a4.561,4.561,0,0,0,3.265-1.191,4.265,4.265,0,0,0,1.267-3.228c0-.518-.018-1.028-.052-1.518Zm0,0" transform="translate(0 -234.905)" fill="#656565"/></svg>